<?xml version="1.0" encoding="UTF-8"?>
<!DOCTYPE svg PUBLIC "-//W3C//DTD SVG 1.1//EN" "http://www.w3.org/Graphics/SVG/1.1/DTD/svg11.dtd">
<!-- Creator: CorelDRAW -->
<svg xmlns="http://www.w3.org/2000/svg" xml:space="preserve" width="6.82666in" height="6.82666in" style="shape-rendering:geometricPrecision; text-rendering:geometricPrecision; image-rendering:optimizeQuality; fill-rule:evenodd; clip-rule:evenodd"
viewBox="0 0 6.82666 6.82666"
 xmlns:xlink="http://www.w3.org/1999/xlink">
 <defs>
  <style type="text/css">
   <![CDATA[
    .fil4 {fill:none}
    .fil1 {fill:#2D2D2D}
    .fil2 {fill:#3A3A3A}
    .fil3 {fill:#818181;fill-rule:nonzero}
    .fil0 {fill:#8C8D8D;fill-rule:nonzero}
   ]]>
  </style>
 </defs>
 <g id="Layer_x0020_1">
  <metadata id="CorelCorpID_0Corel-Layer"/>
  <path class="fil0" d="M1.65903 1.16746c-0.0595984,0 -0.107913,0.0468465 -0.107913,0.104626l0 4.59425c0,0.0577835 0.048315,0.104626 0.107913,0.104626l3.5086 0c0.0595984,0 0.107913,-0.0468425 0.107913,-0.104626l0 -4.59425c0,-0.0577795 -0.048315,-0.104626 -0.107913,-0.104626 -0.642728,0 -2.86587,0 -3.5086,0z"/>
  <path class="fil1" d="M2.06814 1.00972l0.27524 0c0.206945,-0.0917795 0.608484,-0.15402 1.06995,-0.15402 0.461469,0 0.863008,0.0622402 1.06995,0.15402l0.27524 0c0.0927402,0 0.16861,0.0758701 0.16861,0.168606l0 0.434559 -3.02761 0 0 -0.434559c0,-0.0927362 0.0758701,-0.168606 0.16861,-0.168606z"/>
  <path class="fil2" d="M2.06844 1.17832c-0.000106299,8.66142e-005 -0.000212598,0.00019685 -0.000299213,0.000299213l0 0.26565 2.69039 0 0 -0.26565c-8.66142e-005,-0.000102362 -0.000192913,-0.000212598 -0.000299213,-0.000299213l-0.310654 0 -0.0326417 -0.0144764c-0.256465,-0.11374 -0.723835,-0.139539 -1.0016,-0.139539 -0.277764,0 -0.745134,0.0257992 -1.0016,0.139539l-0.0326417 0.0144764 -0.310654 0z"/>
  <path class="fil3" d="M1.9026 1.87308l3.02146 0c0.00920472,0 0.0166693,0.00746457 0.0166693,0.0166693l0 3.7991c0,0.00920472 -0.00746457,0.0166693 -0.0166693,0.0166693l-3.02146 0c-0.00920472,0 -0.0166693,-0.00746457 -0.0166693,-0.0166693l0 -3.7991c0,-0.00920472 0.00746457,-0.0166693 0.0166693,-0.0166693zm3.00479 0.0333386l-2.98812 0 0 3.76576 2.98812 0 0 -3.76576z"/>
 </g>
 <rect class="fil4" width="6.82666" height="6.82666"/>
</svg>
