<?xml version="1.0" encoding="UTF-8"?>
<!DOCTYPE svg PUBLIC "-//W3C//DTD SVG 1.1//EN" "http://www.w3.org/Graphics/SVG/1.1/DTD/svg11.dtd">
<!-- Creator: CorelDRAW -->
<svg xmlns="http://www.w3.org/2000/svg" xml:space="preserve" width="6.82666in" height="6.82666in" style="shape-rendering:geometricPrecision; text-rendering:geometricPrecision; image-rendering:optimizeQuality; fill-rule:evenodd; clip-rule:evenodd"
viewBox="0 0 6.82666 6.82666"
 xmlns:xlink="http://www.w3.org/1999/xlink">
 <defs>
  <style type="text/css">
   <![CDATA[
    .fil0 {fill:none}
    .fil11 {fill:#2F2F2F}
    .fil10 {fill:#AEAEAF}
    .fil9 {fill:#B8B8B8}
    .fil6 {fill:#C4C4C4}
    .fil7 {fill:gainsboro}
    .fil8 {fill:#E4E5E5}
    .fil5 {fill:#444444;fill-rule:nonzero}
    .fil1 {fill:#757575;fill-rule:nonzero}
    .fil3 {fill:#888888;fill-rule:nonzero}
    .fil2 {fill:#AEAEAF;fill-rule:nonzero}
    .fil4 {fill:#F0F0F0;fill-rule:nonzero}
   ]]>
  </style>
 </defs>
 <g id="Layer_x0020_1">
  <metadata id="CorelCorpID_0Corel-Layer"/>
  <rect class="fil0" width="6.82666" height="6.82666"/>
  <g id="_382395888">
   <path id="_382398744" class="fil1" d="M5.57376 4.76754l0.38622 1.05988 4.33071e-005 -1.5748e-005c0.0216811,0.0547717 -0.00514173,0.11676 -0.0599134,0.138441 -0.0295748,0.0117047 -0.061248,0.00926378 -0.0875472,-0.0040748l-1.07252 -0.423945 0.0295591 -0.297197 0.479736 -0.413776 0.324421 -0.059311z"/>
   <path id="_382398720" class="fil2" d="M2.51404 1.70622l3.0595 3.06109 0.000228346 0.000228346 0.00312205 0.0462244 -8.66142e-005 0.169992 -0.210854 -0.0271417 -0.00011811 0.219539 -0.210854 -0.0271417 -0.000114173 0.219543 -0.210854 -0.0271417 -0.00011811 0.219539 -0.203839 -0.0231299 -2.91984 -2.92137 -0.108594 -0.108654 0.788091 -0.783799c0.00551181,-0.00551181 0.0102835,-0.0114764 0.0143346,-0.0177756z"/>
   <line id="_382398648" class="fil0" x1="4.9442" y1="5.56174" x2="1.78362" y2= "2.40115" />
   <line id="_382398480" class="fil0" x1="4.95409" y1="5.3517" x2="1.89328" y2= "2.29089" />
   <line id="_382398504" class="fil0" x1="5.15692" y1="5.37077" x2="2.00468" y2= "2.21633" />
   <line id="_382398384" class="fil0" x1="5.157" y1="5.1525" x2="2.09286" y2= "2.09058" />
   <line id="_382398528" class="fil0" x1="5.36636" y1="5.17719" x2="2.19358" y2= "2.0044" />
   <line id="_382398792" class="fil0" x1="5.37181" y1="4.96328" x2="2.30102" y2= "1.89248" />
   <line id="_382397856" class="fil0" x1="5.57669" y1="4.98405" x2="2.4283" y2= "1.83344" />
   <path id="_382397544" class="fil3" d="M1.0247 1.01889c0.110366,-0.110366 0.255728,-0.165555 0.401,-0.165555 0.145268,0 0.29063,0.055189 0.401,0.165555l0.798618 0.798618c-0.00629921,0.00405118 -0.0122638,0.00882283 -0.0177756,0.0143346l-0.788091 0.783799 -0.794752 -0.794752 -3.93701e-006 -3.93701e-006c-0.110366,-0.110366 -0.165555,-0.255724 -0.165555,-0.400996 0,-0.145268 0.055189,-0.290626 0.165555,-0.400996l3.93701e-006 -3.93701e-006z"/>
   <polygon id="_382397664" class="fil4" points="1.88669,1.07887 2.62256,1.81474 2.22507,2.21223 1.81945,2.61564 1.08469,1.88087 "/>
   <polygon id="_382397952" class="fil5" points="1.95576,1.14802 2.07874,1.27099 1.68125,1.66848 1.27563,2.07189 1.15376,1.95002 "/>
   <polygon id="_382398000" class="fil5" points="2.22771,1.4199 2.35069,1.54287 1.9532,1.94035 1.54758,2.34376 1.42571,2.2219 "/>
   <polygon id="_382396800" class="fil5" points="2.49958,1.69178 2.62256,1.81474 2.22507,2.21223 1.81945,2.61564 1.69758,2.49378 "/>
   <polygon id="_382397112" class="fil6" points="4.80902,5.20663 2.01928,2.41689 1.90902,2.52656 4.75635,5.37388 4.94335,5.56089 4.94388,5.56095 4.944,5.34161 "/>
   <polygon id="_382396704" class="fil7" points="4.90778,5.12145 2.11248,2.32421 2.01928,2.41689 4.80902,5.20663 4.944,5.34161 4.944,5.34141 5.15469,5.36854 "/>
   <polygon id="_382397064" class="fil8" points="5.02487,5.02046 2.21982,2.21745 2.11248,2.32421 4.90778,5.12145 5.15469,5.36854 5.15485,5.36856 5.15497,5.15046 "/>
   <polygon id="_382397136" class="fil7" points="5.12407,4.93489 2.31348,2.1243 2.21982,2.21745 5.02487,5.02046 5.15497,5.15046 5.15497,5.14901 5.36526,5.17608 "/>
   <polygon id="_382397232" class="fil6" points="5.24185,4.83331 2.42346,2.01492 2.31348,2.1243 5.12407,4.93489 5.36526,5.17608 5.36582,5.17615 5.36594,4.9574 "/>
   <polygon id="_382397016" class="fil9" points="5.3933,4.80053 2.51684,1.92205 2.42346,2.01492 5.24185,4.83331 5.36594,4.9574 5.36594,4.95661 5.57634,4.9837 "/>
   <path id="_382396680" class="fil10" d="M5.57353 4.76731l-2.94821 -2.94981c-0.00629921,0.00405118 -0.0122638,0.00882283 -0.0177756,0.0143346l-0.0907008 0.0902087 2.87646 2.87848 0.183035 0.183165 0.000456693 5.90551e-005 8.66142e-005 -0.169992 -0.00312205 -0.0462244 -0.000228346 -0.000228346z"/>
   <polygon id="_382396128" class="fil9" points="4.75635,5.37388 1.90902,2.52656 1.81969,2.61593 1.8202,2.61645 4.74004,5.53782 4.94336,5.56089 "/>
   <path id="_382396368" class="fil11" d="M5.90375 5.67311c-0.14422,-0.066622 -0.316,0.106146 -0.225126,0.235717 0.0707677,0.0279764 0.273543,0.157146 0.320295,0.10676 0.0436102,-0.047 -0.0664528,-0.263665 -0.0951693,-0.342476z"/>
  </g>
 </g>
 <rect class="fil0" width="6.82666" height="6.82666"/>
</svg>
