<?xml version="1.0" encoding="UTF-8"?>
<!DOCTYPE svg PUBLIC "-//W3C//DTD SVG 1.1//EN" "http://www.w3.org/Graphics/SVG/1.1/DTD/svg11.dtd">
<!-- Creator: CorelDRAW -->
<svg xmlns="http://www.w3.org/2000/svg" xml:space="preserve" width="6.82666in" height="6.82666in" style="shape-rendering:geometricPrecision; text-rendering:geometricPrecision; image-rendering:optimizeQuality; fill-rule:evenodd; clip-rule:evenodd"
viewBox="0 0 6.82666 6.82666"
 xmlns:xlink="http://www.w3.org/1999/xlink">
 <defs>
  <style type="text/css">
   <![CDATA[
    .fil5 {fill:none}
    .fil2 {fill:#444444}
    .fil3 {fill:#6A6A6A}
    .fil0 {fill:#545454;fill-rule:nonzero}
    .fil4 {fill:#888888;fill-rule:nonzero}
    .fil1 {fill:#BCBCBC;fill-rule:nonzero}
   ]]>
  </style>
 </defs>
 <g id="Layer_x0020_1">
  <metadata id="CorelCorpID_0Corel-Layer"/>
  <path class="fil0" d="M4.93322 5.67623l0.351402 0c0.00309843,0.000271654 0.00623622,0.000417323 0.00940551,0.000417323 0.0589094,0 0.106669,-0.0477598 0.106669,-0.106669l0 -4.60998c0,-0.0589094 -0.0477598,-0.106669 -0.106669,-0.106669l-3.27946 0c-0.0589094,0 -0.106669,0.0477598 -0.106669,0.106669l0 0.365996 2.81198 0c0.117783,0 0.213335,0.0955591 0.213335,0.213335l0 4.1369z"/>
  <path class="fil1" d="M1.69043 1.15001l3.27946 0c0.0589094,0 0.106669,0.0477598 0.106669,0.106669l0 4.60998c0,0.0589094 -0.0477598,0.106669 -0.106669,0.106669l-3.27946 0c-0.0589094,0 -0.106669,-0.0477598 -0.106669,-0.106669 0,-1.75397 0,-2.85727 0,-4.60998 0,-0.0589094 0.0477598,-0.106669 0.106669,-0.106669z"/>
  <g id="_382384176">
   <rect id="_382384464" class="fil2" x="2.12385" y="2.33381" width="1.31624" height="0.137343"/>
   <rect id="_382384752" class="fil2" x="2.12385" y="2.79749" width="1.31624" height="0.137343"/>
   <rect id="_382384512" class="fil2" x="2.12385" y="3.26116" width="2.63247" height="0.137343"/>
   <rect id="_382383840" class="fil2" x="2.12385" y="3.72484" width="2.63247" height="0.137343"/>
   <rect id="_382384152" class="fil2" x="2.12385" y="4.18851" width="2.63247" height="0.137343"/>
   <rect id="_382384008" class="fil2" x="2.12385" y="4.65219" width="2.63247" height="0.137343"/>
  </g>
  <circle class="fil3" cx="1.76546" cy="1.70135" r="0.145862"/>
  <circle class="fil3" cx="1.76546" cy="2.23267" r="0.145862"/>
  <circle class="fil3" cx="1.76546" cy="2.76398" r="0.145862"/>
  <circle class="fil3" cx="1.76546" cy="3.29529" r="0.145862"/>
  <circle class="fil3" cx="1.76546" cy="3.82661" r="0.145862"/>
  <circle class="fil3" cx="1.76546" cy="4.35792" r="0.145862"/>
  <circle class="fil3" cx="1.76546" cy="4.88923" r="0.145862"/>
  <circle class="fil3" cx="1.76546" cy="5.42054" r="0.145862"/>
  <path class="fil4" d="M1.43055 3.18862c-0.0589094,0 -0.106669,0.0477598 -0.106669,0.106669 0,0.0589094 0.0477598,0.106669 0.106669,0.106669l0.326898 0c0.0589094,0 0.106669,-0.0477598 0.106669,-0.106669 0,-0.0589094 -0.0477598,-0.106669 -0.106669,-0.106669l-0.326898 0z"/>
  <path class="fil4" d="M1.43055 4.78256c-0.0589094,0 -0.106669,0.0477598 -0.106669,0.106669 0,0.0589094 0.0477598,0.106669 0.106669,0.106669l0.326898 0c0.0589094,0 0.106669,-0.0477598 0.106669,-0.106669 0,-0.0589094 -0.0477598,-0.106669 -0.106669,-0.106669l-0.326898 0z"/>
  <path class="fil4" d="M1.43055 4.25125c-0.0589094,0 -0.106669,0.0477598 -0.106669,0.106669 0,0.0589094 0.0477598,0.106669 0.106669,0.106669l0.326898 0c0.0589094,0 0.106669,-0.0477598 0.106669,-0.106669 0,-0.0589094 -0.0477598,-0.106669 -0.106669,-0.106669l-0.326898 0z"/>
  <path class="fil4" d="M1.43055 3.71994c-0.0589094,0 -0.106669,0.0477598 -0.106669,0.106669 0,0.0589094 0.0477598,0.106669 0.106669,0.106669l0.326898 0c0.0589094,0 0.106669,-0.0477598 0.106669,-0.106669 0,-0.0589094 -0.0477598,-0.106669 -0.106669,-0.106669l-0.326898 0z"/>
  <path class="fil4" d="M1.43055 5.31387c-0.0589094,0 -0.106669,0.0477598 -0.106669,0.106669 0,0.0589094 0.0477598,0.106669 0.106669,0.106669l0.326898 0c0.0589094,0 0.106669,-0.0477598 0.106669,-0.106669 0,-0.0589094 -0.0477598,-0.106669 -0.106669,-0.106669l-0.326898 0z"/>
  <path class="fil4" d="M1.43055 2.126c-0.0589094,0 -0.106669,0.0477598 -0.106669,0.106669 0,0.0589094 0.0477598,0.106669 0.106669,0.106669l0.326898 0c0.0589094,0 0.106669,-0.0477598 0.106669,-0.106669 0,-0.0589094 -0.0477598,-0.106669 -0.106669,-0.106669l-0.326898 0z"/>
  <path class="fil4" d="M1.43055 2.65731c-0.0589094,0 -0.106669,0.0477598 -0.106669,0.106669 0,0.0589094 0.0477598,0.106669 0.106669,0.106669l0.326898 0c0.0589094,0 0.106669,-0.0477598 0.106669,-0.106669 0,-0.0589094 -0.0477598,-0.106669 -0.106669,-0.106669l-0.326898 0z"/>
  <path class="fil4" d="M1.43055 1.59469c-0.0589094,0 -0.106669,0.0477598 -0.106669,0.106669 0,0.0589094 0.0477598,0.106669 0.106669,0.106669l0.326898 0c0.0589094,0 0.106669,-0.0477598 0.106669,-0.106669 0,-0.0589094 -0.0477598,-0.106669 -0.106669,-0.106669l-0.326898 0z"/>
 </g>
 <rect class="fil5" width="6.82666" height="6.82666"/>
</svg>
